<?xml version="1.0" encoding="UTF-8"?>
<svg id="Layer_1" data-name="Layer 1" xmlns="http://www.w3.org/2000/svg" viewBox="0 0 110 65">
  <defs>
    <style>
      .cls-1 {
        fill: #fff;
      }

      .cls-2 {
        fill: none;
      }
    </style>
  </defs>
  <path class="cls-2" d="M86.93,49.19c-.71,0-1.29,.28-1.73,.85s-.66,1.38-.66,2.44c0,.94,.22,1.69,.65,2.26s1.02,.85,1.75,.85,1.32-.29,1.75-.86,.65-1.38,.65-2.42c0-.93-.22-1.68-.66-2.25s-1.02-.86-1.75-.86Z"/>
  <path class="cls-2" d="M15.19,29.67c-.58,0-1.08,.13-1.51,.39s-.8,.65-1.12,1.19c-.32,.53-.61,1.27-.88,2.22-.27,.95-.56,1.62-.88,2.01-.32,.39-.71,.59-1.18,.59-.58,0-1.03-.21-1.36-.62s-.49-.99-.49-1.73c0-.8,.2-1.41,.59-1.85s.94-.66,1.63-.66v-1.51c-.63,0-1.21,.17-1.74,.5s-.95,.81-1.25,1.42c-.3,.61-.45,1.31-.45,2.09,0,1.15,.29,2.08,.88,2.79,.59,.72,1.33,1.07,2.22,1.07,.79,0,1.46-.29,2-.88s.99-1.52,1.36-2.81c.3-1.03,.6-1.73,.9-2.12s.74-.59,1.29-.59,1,.21,1.32,.63,.48,1.03,.48,1.82c0,.85-.2,1.53-.6,2.04s-.94,.76-1.63,.76v1.51c.66,0,1.25-.18,1.77-.55s.93-.89,1.23-1.57c.3-.68,.45-1.41,.45-2.19,0-1.2-.28-2.16-.83-2.88s-1.29-1.08-2.21-1.08Z"/>
  <path class="cls-2" d="M12.56,21.75c-.32,.53-.61,1.27-.88,2.22-.27,.95-.56,1.62-.88,2.01-.32,.39-.71,.59-1.18,.59-.58,0-1.03-.21-1.36-.62s-.49-.99-.49-1.73c0-.8,.2-1.41,.59-1.85s.94-.66,1.63-.66v-1.51c-.63,0-1.21,.17-1.74,.5s-.95,.81-1.25,1.42-.45,1.31-.45,2.09c0,1.15,.29,2.08,.88,2.79,.59,.72,1.33,1.07,2.22,1.07,.79,0,1.46-.29,2-.88s.99-1.52,1.36-2.81c.3-1.03,.6-1.73,.9-2.12s.74-.59,1.29-.59,1,.21,1.32,.63,.48,1.03,.48,1.82c0,.85-.2,1.53-.6,2.04s-.94,.76-1.63,.76v1.51c.66,0,1.25-.18,1.77-.55s.93-.89,1.23-1.57c.3-.68,.45-1.41,.45-2.19,0-1.2-.28-2.16-.83-2.88s-1.29-1.08-2.21-1.08c-.58,0-1.08,.13-1.51,.39s-.8,.65-1.12,1.19Z"/>
  <path class="cls-2" d="M41.46,54.06c0,.45,.15,.81,.45,1.06,.3,.25,.69,.38,1.16,.38s.88-.12,1.29-.35,.7-.54,.88-.91v-1.73h-1.13c-1.77,0-2.66,.52-2.66,1.55Z"/>
  <path class="cls-2" d="M66.31,49.19c-.58,0-1.07,.21-1.47,.64s-.64,1.02-.73,1.79h4.23v-.11c-.04-.73-.24-1.3-.59-1.71s-.83-.61-1.44-.61Z"/>
  <path class="cls-2" d="M14.47,39.29v1.51c.94,.15,1.59,.44,1.97,.89s.57,1.08,.57,1.92c0,.93-.37,1.65-1.09,2.16s-1.71,.77-2.95,.77h-1.1c-1.31,0-2.32-.27-3.03-.82-.71-.54-1.06-1.29-1.06-2.25,0-.78,.2-1.39,.61-1.82,.41-.43,1.07-.72,1.97-.85v-1.51c-1.19,.12-2.13,.54-2.8,1.27-.67,.73-1.01,1.7-1.01,2.91,0,.91,.21,1.71,.64,2.41,.43,.69,1.05,1.23,1.85,1.61,.8,.38,1.73,.57,2.79,.57h1.09c1.61,0,2.9-.4,3.87-1.21,.96-.81,1.45-1.89,1.45-3.23,0-1.24-.33-2.23-.98-2.98-.65-.75-1.58-1.19-2.79-1.33Z"/>
  <path class="cls-1" d="M68.45,30.13h-1.25v9.11h1.25c2.52,0,4.56-2.04,4.56-4.55s-2.04-4.56-4.56-4.56Zm-28.53,2.67h-3.89L23.83,4.03H10.87l.11,5.34h-2.85c-1.74,0-3.15,1.41-3.15,3.15V57.82c0,1.74,1.41,3.15,3.15,3.15h8.7c1.74,0,3.15-1.41,3.15-3.15V12.52c0-1.74-1.41-3.15-3.15-3.15h-2.7l-.04-2.19h7.66l12.19,28.78h5.98v3.28h25.28v-9.11h-25.28v2.67Zm-23.13,14.03c-.96,.81-2.25,1.21-3.87,1.21h-1.09c-1.06,0-1.99-.19-2.79-.56-.8-.38-1.42-.92-1.85-1.61s-.64-1.49-.64-2.41c0-1.2,.33-2.17,1.01-2.9,.67-.73,1.61-1.16,2.8-1.28v1.51c-.91,.13-1.57,.42-1.97,.85-.41,.44-.62,1.04-.62,1.82,0,.96,.36,1.71,1.07,2.26,.71,.54,1.72,.81,3.02,.81h1.11c1.23,0,2.21-.25,2.94-.77,.73-.51,1.1-1.24,1.1-2.16,0-.84-.19-1.48-.57-1.92-.38-.45-1.03-.74-1.97-.89v-1.51c1.2,.14,2.13,.59,2.78,1.34,.66,.74,.99,1.74,.99,2.98,0,1.34-.49,2.42-1.45,3.23Zm1-11.01c-.3,.67-.71,1.19-1.23,1.56-.53,.37-1.12,.55-1.78,.55v-1.51c.69,0,1.23-.25,1.63-.76,.4-.5,.6-1.18,.6-2.03,0-.79-.16-1.4-.49-1.82-.32-.42-.76-.64-1.32-.64s-.98,.2-1.29,.59c-.3,.39-.6,1.1-.9,2.13-.37,1.28-.83,2.22-1.36,2.8-.54,.59-1.21,.88-2,.88-.9,0-1.64-.35-2.22-1.07-.59-.72-.88-1.65-.88-2.79,0-.79,.15-1.48,.45-2.09,.3-.62,.72-1.09,1.25-1.43,.53-.33,1.11-.5,1.74-.5v1.51c-.69,0-1.23,.22-1.62,.65-.4,.44-.6,1.06-.6,1.86,0,.74,.17,1.31,.49,1.73,.33,.41,.78,.62,1.36,.62,.47,0,.86-.2,1.18-.59s.61-1.06,.88-2.01,.56-1.68,.88-2.22c.32-.53,.69-.93,1.12-1.19,.43-.25,.93-.38,1.51-.38,.92,0,1.66,.36,2.21,1.08,.56,.71,.84,1.67,.84,2.88,0,.78-.15,1.51-.45,2.19Zm-2.6-15.65c.92,0,1.66,.36,2.21,1.08,.56,.72,.84,1.68,.84,2.89,0,.78-.15,1.51-.45,2.18-.3,.68-.71,1.2-1.23,1.57-.53,.37-1.12,.55-1.78,.55v-1.51c.69,0,1.23-.25,1.63-.76,.4-.51,.6-1.18,.6-2.03,0-.8-.16-1.4-.49-1.82-.32-.43-.76-.64-1.32-.64s-.98,.2-1.29,.59c-.3,.39-.6,1.1-.9,2.12-.37,1.29-.83,2.23-1.36,2.81-.54,.59-1.21,.88-2,.88-.9,0-1.64-.36-2.22-1.07-.59-.72-.88-1.65-.88-2.8,0-.78,.15-1.47,.45-2.09,.3-.61,.72-1.08,1.25-1.42,.53-.33,1.11-.5,1.74-.5v1.51c-.69,0-1.23,.21-1.62,.65-.4,.44-.6,1.06-.6,1.85,0,.74,.17,1.32,.49,1.73,.33,.42,.78,.63,1.36,.63,.47,0,.86-.2,1.18-.59,.32-.4,.61-1.07,.88-2.01,.27-.95,.56-1.69,.88-2.22,.32-.54,.69-.93,1.12-1.19,.43-.26,.93-.39,1.51-.39Z"/>
  <polygon class="cls-1" points="26.74 56.61 28.24 56.61 28.24 51.58 33.01 51.58 33.01 50.36 28.24 50.36 28.24 46.46 33.79 46.46 33.79 45.23 26.74 45.23 26.74 56.61"/>
  <path class="cls-1" d="M36.58,49.13l-.02-.98h-1.41v8.45h1.45v-6c.34-.81,.98-1.21,1.93-1.21,.25,0,.49,.02,.71,.05v-1.34c-.15-.07-.36-.11-.64-.11-.87,0-1.54,.38-2.02,1.13Z"/>
  <path class="cls-1" d="M46.69,50.74c-.02-.85-.31-1.52-.86-2.01-.55-.49-1.32-.73-2.29-.73-.62,0-1.18,.11-1.69,.34-.51,.23-.92,.54-1.22,.93-.3,.39-.45,.8-.45,1.22h1.45c0-.37,.17-.68,.52-.95,.35-.26,.78-.39,1.3-.39,.59,0,1.03,.15,1.34,.45,.3,.3,.45,.7,.45,1.21v.66h-1.41c-1.21,0-2.16,.24-2.82,.73-.67,.49-1,1.17-1,2.05,0,.72,.27,1.32,.8,1.79,.53,.47,1.22,.71,2.05,.71,.93,0,1.73-.35,2.41-1.05,.05,.43,.12,.72,.2,.89h1.52v-.12c-.2-.46-.3-1.08-.3-1.85v-3.89Zm-1.45,3.5c-.18,.38-.48,.68-.88,.91s-.84,.35-1.29,.35-.86-.13-1.16-.38c-.3-.25-.45-.61-.45-1.06,0-1.04,.88-1.55,2.66-1.55h1.13v1.73Z"/>
  <path class="cls-1" d="M57.97,48c-.61,0-1.15,.12-1.6,.38s-.82,.58-1.1,.98c-.43-.91-1.23-1.36-2.41-1.36-1.05,0-1.89,.36-2.51,1.09l-.04-.94h-1.37v8.45h1.45v-6.17c.35-.81,1-1.21,1.95-1.21,1.2,0,1.8,.61,1.8,1.84v5.54h1.45v-5.61c.06-.54,.26-.97,.62-1.29s.8-.48,1.34-.48c.65,0,1.11,.15,1.39,.45s.41,.75,.41,1.36v5.58h1.45v-5.66c-.03-1.96-.97-2.95-2.83-2.95Z"/>
  <path class="cls-1" d="M66.31,48c-.67,0-1.3,.19-1.87,.56s-1.02,.89-1.34,1.55-.48,1.41-.48,2.25v.27c0,1.26,.36,2.27,1.08,3.02s1.65,1.13,2.8,1.13c1.42,0,2.48-.54,3.19-1.63l-.88-.69c-.27,.34-.58,.62-.93,.83s-.79,.31-1.3,.31c-.72,0-1.31-.26-1.78-.77s-.71-1.19-.73-2.02h5.73v-.6c0-1.35-.3-2.39-.91-3.11s-1.46-1.09-2.56-1.09Zm2.03,3.61h-4.23c.09-.77,.34-1.36,.73-1.79s.89-.64,1.47-.64,1.08,.2,1.44,.61,.55,.97,.59,1.71v.11Z"/>
  <polygon class="cls-1" points="78.94 54.61 76.93 48.15 75.77 48.15 73.8 54.48 72.14 48.15 70.7 48.15 73.15 56.61 74.32 56.61 76.32 50.2 78.38 56.61 79.55 56.61 82.01 48.15 80.57 48.15 78.94 54.61"/>
  <path class="cls-1" d="M86.93,48c-.75,0-1.41,.18-1.99,.54s-1.03,.87-1.36,1.53-.49,1.41-.49,2.23v.1c0,1.31,.36,2.37,1.07,3.16s1.64,1.2,2.79,1.2c.76,0,1.43-.18,2.02-.55s1.04-.87,1.35-1.53,.47-1.39,.47-2.21v-.1c0-1.32-.36-2.38-1.07-3.18s-1.64-1.2-2.79-1.2Zm1.77,6.72c-.43,.58-1.02,.86-1.75,.86s-1.31-.28-1.75-.85-.65-1.32-.65-2.26c0-1.06,.22-1.87,.66-2.44s1.01-.85,1.73-.85,1.31,.29,1.75,.86,.66,1.33,.66,2.25c0,1.04-.22,1.84-.65,2.42Z"/>
  <path class="cls-1" d="M94.04,49.13l-.02-.98h-1.41v8.45h1.45v-6c.34-.81,.98-1.21,1.93-1.21,.25,0,.49,.02,.71,.05v-1.34c-.15-.07-.36-.11-.64-.11-.87,0-1.54,.38-2.02,1.13Z"/>
  <polygon class="cls-1" points="101.35 51.69 104.64 48.15 102.88 48.15 100.25 50.94 99.47 51.86 99.47 44.61 98.03 44.61 98.03 56.61 99.47 56.61 99.47 53.64 100.38 52.69 103.32 56.61 105.02 56.61 101.35 51.69"/>
</svg>